<?xml version="1.0" standalone="no"?>
<!DOCTYPE svg PUBLIC "-//W3C//DTD SVG 20010904//EN"
 "http://www.w3.org/TR/2001/REC-SVG-20010904/DTD/svg10.dtd">
<svg version="1.0" xmlns="http://www.w3.org/2000/svg"
 width="560.000000pt" height="560.000000pt" viewBox="0 0 560.000000 560.000000"
 preserveAspectRatio="xMidYMid meet">
<metadata>
Created by potrace 1.14, written by Peter Selinger 2001-2017
</metadata>
<g transform="translate(0.000000,560.000000) scale(0.100000,-0.100000)"
fill="#000000" stroke="none">
<path d="M2388 5453 c-70 -13 -136 -39 -177 -70 -21 -16 -34 -29 -92 -93 -42
-46 -74 -209 -55 -285 34 -142 62 -194 156 -293 53 -57 162 -128 180 -117 4 3
10 0 12 -5 2 -6 35 -11 75 -11 57 -1 84 5 128 25 31 14 54 30 50 36 -4 6 1 7
11 3 11 -4 15 -2 11 4 -4 5 5 15 19 22 17 7 24 17 20 26 -3 9 0 15 9 15 9 0
23 17 33 38 9 20 20 40 25 43 4 3 10 15 12 27 3 12 7 30 10 40 22 83 26 118
22 197 -3 50 -11 104 -18 120 -7 17 -12 33 -11 37 4 16 -89 148 -115 165 -15
10 -30 20 -33 24 -17 21 -126 59 -180 63 -14 1 -55 -4 -92 -11z"/>
<path d="M4183 4839 c-6 -6 -20 -11 -32 -12 -11 -1 -21 -7 -21 -14 0 -7 -9
-13 -20 -13 -11 0 -23 -7 -26 -15 -4 -8 -12 -15 -20 -15 -7 0 -19 -9 -27 -20
-8 -11 -16 -18 -19 -15 -3 3 -16 -5 -29 -17 -14 -13 -44 -36 -67 -52 -24 -16
-46 -36 -51 -44 -4 -7 -11 -13 -15 -13 -8 2 -55 -28 -80 -51 -11 -10 -25 -18
-31 -18 -6 0 -18 -9 -28 -20 -9 -11 -22 -21 -29 -21 -50 -6 -105 -7 -118 -2
-15 6 -46 9 -140 17 -25 2 -45 5 -45 6 0 4 -104 12 -177 13 -38 1 -68 5 -68 8
0 4 -21 7 -47 8 -55 1 -205 10 -213 12 -3 1 -9 1 -13 0 -5 -1 -62 -3 -127 -4
-85 -3 -123 -7 -136 -18 -9 -8 -20 -13 -23 -12 -9 3 -55 -9 -61 -16 -3 -3 -32
-19 -64 -36 -70 -35 -148 -103 -184 -159 -15 -23 -27 -44 -28 -48 -1 -5 -3
-11 -4 -15 -1 -5 -2 -11 -1 -15 0 -5 -3 -8 -7 -8 -5 0 -9 -6 -9 -14 0 -7 -9
-38 -21 -67 -41 -104 -45 -114 -48 -129 -2 -8 -8 -16 -14 -18 -5 -2 -7 -8 -4
-13 3 -6 0 -16 -6 -24 -7 -8 -10 -15 -6 -15 4 0 -1 -11 -10 -24 -8 -14 -15
-27 -15 -30 1 -7 -1 -10 -29 -88 -12 -32 -20 -59 -18 -62 2 -2 -5 -12 -14 -22
-9 -11 -17 -22 -17 -26 -1 -5 -1 -9 -2 -10 0 -2 -2 -11 -4 -21 -2 -10 -7 -26
-11 -35 -4 -9 -8 -19 -9 -22 -2 -3 -6 -15 -10 -27 -4 -13 -14 -23 -21 -23 -8
0 -14 -4 -14 -8 0 -4 -8 -8 -17 -8 -23 -1 -78 -14 -118 -27 -11 -3 -31 -8 -45
-11 -14 -3 -68 -17 -120 -31 -52 -14 -104 -28 -115 -29 -11 -2 -20 -4 -20 -5
0 -2 -7 -4 -15 -6 -8 -2 -28 -6 -45 -10 -16 -3 -36 -7 -42 -7 -7 -1 -13 -4
-13 -7 0 -4 -11 -8 -25 -9 -14 -1 -42 -10 -63 -21 -97 -50 -139 -162 -92 -249
44 -83 97 -117 175 -114 43 2 187 32 235 50 8 3 20 6 25 7 6 1 12 3 15 4 3 2
14 4 25 6 11 2 30 6 43 9 12 3 31 8 42 11 11 3 30 8 43 11 12 3 29 6 37 7 8 1
17 4 20 8 3 3 50 15 105 28 55 12 103 28 107 34 4 7 8 8 8 3 0 -5 7 -3 15 4 8
7 15 9 15 5 0 -4 6 -2 13 4 8 6 17 8 20 4 4 -3 7 1 7 10 0 10 6 17 13 17 7 0
34 21 59 48 69 70 80 82 74 82 -9 0 42 97 54 105 6 4 8 10 5 15 -3 5 0 14 7
22 7 7 27 40 43 72 17 33 33 59 38 58 4 -1 7 -5 6 -8 0 -4 3 -10 8 -13 9 -7
20 -26 69 -116 17 -33 48 -89 68 -123 20 -35 36 -68 36 -73 0 -5 4 -9 9 -9 5
0 11 -8 13 -17 2 -12 -86 -107 -275 -295 -154 -153 -276 -278 -272 -278 3 0 0
-7 -9 -15 -8 -8 -18 -15 -23 -15 -9 0 -43 -36 -43 -46 0 -4 -10 -15 -22 -25
-11 -11 -17 -19 -12 -19 5 0 4 -4 -2 -8 -13 -8 -86 -122 -79 -122 3 0 -2 -15
-12 -32 -9 -18 -17 -35 -18 -38 0 -3 -4 -11 -8 -17 -5 -7 -5 -13 0 -13 4 0 3
-4 -3 -8 -6 -4 -26 -45 -44 -92 -17 -47 -36 -88 -42 -91 -5 -3 -8 -10 -7 -15
2 -8 -17 -57 -42 -107 -7 -12 -5 -17 6 -17 8 0 15 -5 15 -11 0 -5 4 -8 8 -5 4
2 27 -4 51 -15 24 -10 47 -17 51 -14 5 3 10 2 12 -3 1 -4 30 -16 63 -26 55
-17 74 -24 161 -61 22 -9 36 -10 49 -3 15 9 17 8 12 -6 -4 -11 -1 -16 11 -16
14 0 42 42 48 73 1 4 3 10 4 15 1 4 2 10 1 15 0 4 4 7 11 7 6 0 8 3 5 7 -4 3
-3 11 2 17 5 6 19 36 31 66 12 30 27 66 33 80 6 14 11 27 12 30 0 3 11 23 22
46 17 32 19 44 10 54 -9 10 -9 11 0 6 7 -4 49 29 105 83 174 167 222 210 230
205 9 -6 -8 -36 -38 -70 -22 -25 -79 -135 -76 -146 1 -4 -5 -28 -14 -53 -8
-25 -12 -50 -9 -55 3 -6 3 -16 -2 -22 -4 -7 -8 -121 -8 -253 l0 -240 40 -19
c22 -11 43 -19 48 -18 4 1 7 -3 7 -9 0 -5 5 -7 10 -4 6 4 16 2 23 -3 7 -5 46
-22 87 -38 41 -15 77 -31 80 -34 3 -3 12 -7 20 -9 8 -2 20 -4 25 -5 6 -2 30
-12 55 -23 25 -11 57 -23 73 -27 l27 -6 0 330 c0 349 0 350 48 396 13 12 24
31 25 42 0 12 6 18 14 15 7 -3 13 0 13 5 0 6 11 24 25 39 36 41 40 45 61 78
10 17 24 36 31 43 7 7 29 34 50 60 21 26 48 58 61 72 12 14 22 29 22 35 0 6 9
16 20 23 11 7 20 21 20 32 0 11 7 20 15 20 8 0 20 10 26 23 7 12 20 29 31 38
10 9 18 20 18 25 0 5 9 16 20 24 11 8 20 18 20 23 0 9 13 26 50 66 97 106 133
238 106 386 -10 49 -66 196 -82 216 -8 9 -11 19 -7 22 3 4 1 7 -5 7 -6 0 -16
17 -23 37 -6 21 -18 44 -26 51 -7 7 -13 20 -13 28 0 8 -5 14 -12 14 -6 0 -9 3
-5 6 3 3 -4 23 -17 43 -12 20 -35 62 -51 93 -17 32 -34 58 -38 58 -5 0 -5 5
-2 10 3 6 1 10 -4 10 -6 0 -10 3 -9 8 2 7 -31 74 -41 82 -8 6 -51 93 -51 102
0 8 189 7 194 -1 6 -9 134 -4 186 8 85 19 165 53 213 91 10 8 28 23 39 33 12
9 25 17 29 17 4 0 19 11 32 24 14 14 27 23 29 21 2 -2 22 12 44 33 23 20 45
39 50 41 33 13 93 64 88 73 -4 6 -3 8 3 5 23 -14 153 100 153 134 0 10 4 20 9
23 13 8 6 86 -11 126 -16 37 -66 84 -108 103 -34 14 -105 18 -117 6z m-446
-331 c-3 -8 -6 -5 -6 6 -1 11 2 17 5 13 3 -3 4 -12 1 -19z m-987 -1902 c0 -2
-8 -10 -17 -17 -16 -13 -17 -12 -4 4 13 16 21 21 21 13z"/>
<path d="M3962 2401 c-8 -5 -3 -18 16 -41 35 -43 46 -70 29 -70 -7 -1 -5 -6 5
-14 10 -7 25 -33 33 -57 8 -24 18 -51 22 -59 3 -8 5 -25 4 -37 -1 -11 3 -24 9
-28 5 -3 8 -11 5 -16 -4 -5 0 -9 7 -9 12 0 15 -12 20 -102 1 -16 5 -28 9 -28
4 0 6 -27 6 -60 -1 -33 1 -60 5 -60 4 0 5 -12 2 -27 -8 -47 -10 -164 -2 -169
4 -3 5 -10 3 -17 -4 -13 -15 -87 -19 -131 -1 -16 -9 -34 -17 -40 -8 -6 -14
-22 -14 -36 1 -26 -12 -66 -29 -89 -6 -7 -11 -20 -12 -29 -2 -8 -8 -18 -15
-22 -6 -4 -9 -12 -5 -18 3 -6 2 -13 -4 -17 -6 -4 -7 -12 -4 -18 4 -7 4 -9 -1
-5 -9 8 -35 -15 -35 -31 0 -6 -4 -11 -10 -11 -5 0 -10 -7 -10 -15 0 -8 -18
-33 -40 -56 -31 -32 -39 -46 -34 -65 4 -15 2 -24 -6 -24 -6 0 -9 4 -6 8 2 4 0
14 -5 22 -7 12 -10 11 -15 -7 -4 -13 -13 -23 -20 -23 -8 0 -14 -4 -14 -8 0 -5
-18 -18 -40 -31 -22 -12 -45 -28 -52 -34 -7 -7 -31 -24 -53 -37 -22 -13 -45
-31 -51 -39 -7 -8 -20 -12 -33 -8 -12 3 -28 -1 -36 -10 -9 -8 -23 -16 -33 -18
-9 -2 -18 -4 -19 -5 -2 -2 -6 -3 -10 -4 -5 -1 -14 -5 -21 -10 -19 -11 -162
-56 -181 -56 -9 0 -28 -7 -43 -14 -20 -11 -28 -12 -28 -3 -1 7 -8 3 -18 -8 -9
-11 -28 -21 -42 -22 -42 -2 -112 -12 -170 -23 -65 -13 -238 -37 -302 -43 -10
-1 -18 -4 -18 -7 0 -3 -37 -5 -83 -4 -45 0 -87 -3 -92 -7 -6 -4 -20 -7 -30 -5
-11 2 -23 -2 -27 -8 -5 -8 -8 -7 -8 2 0 10 -5 10 -20 2 -13 -7 -20 -7 -20 -1
0 7 -9 7 -22 2 -27 -9 -104 -8 -114 2 -4 3 -14 3 -23 -2 -9 -5 -49 -8 -88 -7
-40 1 -73 -2 -73 -6 0 -9 4 -10 150 -39 58 -12 112 -24 120 -28 8 -4 22 -7 30
-6 8 1 28 -5 43 -12 15 -8 32 -11 37 -8 5 3 20 0 32 -7 13 -7 28 -13 33 -14
38 -2 157 -29 161 -36 3 -4 23 -8 44 -8 21 0 41 -4 44 -9 3 -4 21 -7 40 -5 23
3 36 0 40 -11 3 -8 12 -12 21 -9 8 4 21 2 28 -3 6 -5 22 -8 35 -7 12 0 22 -3
22 -9 0 -5 9 -7 20 -4 11 3 20 2 20 -2 0 -4 10 -7 23 -7 28 -1 97 -13 107 -19
3 -2 42 -11 86 -20 43 -9 83 -19 88 -22 5 -4 25 -7 44 -9 20 -2 38 -7 41 -11
3 -4 15 -8 26 -7 11 0 35 -5 54 -13 18 -7 37 -11 41 -8 5 3 10 -1 13 -7 2 -7
8 -10 12 -6 4 4 2 15 -6 25 -10 12 -10 15 -1 9 7 -4 21 -2 30 5 14 11 15 11 5
-1 -21 -23 -15 -29 27 -36 22 -4 43 -10 45 -15 3 -4 25 -11 50 -15 24 -3 49
-12 55 -19 6 -8 23 -11 40 -9 16 3 38 1 48 -5 18 -10 56 -19 112 -27 14 -1 43
-6 65 -9 56 -9 72 -9 140 -1 33 4 78 8 100 9 22 1 46 6 52 10 17 11 51 19 93
22 20 1 45 7 56 13 10 5 36 13 57 17 20 4 37 11 37 15 0 7 22 17 55 25 6 1 13
3 18 5 4 1 10 3 15 4 4 1 17 7 30 14 12 7 22 9 22 5 0 -3 12 5 28 19 15 13 43
31 62 38 19 7 43 22 54 34 10 11 20 19 23 18 3 -2 14 6 24 17 11 12 17 21 13
21 -4 0 5 9 19 20 14 11 30 20 35 20 5 0 18 12 28 28 10 15 22 32 28 39 22 25
32 39 56 78 14 22 26 44 27 50 7 32 36 101 45 106 11 7 29 84 30 127 0 12 4
22 9 22 4 0 6 7 3 15 -3 8 -3 19 1 26 4 6 9 37 11 68 1 31 6 72 9 91 4 19 8
62 9 95 1 33 4 65 7 70 8 15 -1 242 -10 265 -3 6 -11 83 -14 130 -1 19 -6 38
-11 41 -4 4 -9 21 -10 38 -1 26 -3 29 -12 16 -13 -18 -25 -9 -17 12 3 8 0 19
-8 24 -8 5 -9 9 -2 9 6 0 9 9 6 20 -6 23 -14 25 -33 8 -7 -8 -6 -3 3 11 14 21
14 27 2 51 -16 31 -48 50 -38 23 4 -11 2 -14 -5 -9 -7 4 -12 2 -12 -5 0 -7 -2
-10 -5 -7 -3 3 1 21 10 41 14 35 14 36 -15 59 -16 12 -30 29 -30 36 0 6 -7 12
-15 12 -9 0 -19 8 -22 18 -10 24 -31 44 -42 38 -5 -3 -11 1 -15 9 -3 8 -15 15
-26 15 -14 0 -19 -4 -14 -12 4 -7 3 -9 -1 -5 -13 11 -15 38 -3 31 6 -4 8 -2 4
4 -5 9 -62 42 -73 42 -10 0 0 -31 18 -54 13 -17 19 -36 16 -51 -2 -14 0 -25 4
-25 5 0 9 -8 9 -17 0 -15 2 -14 14 3 14 18 14 17 10 -13 -3 -22 -1 -33 7 -33
6 0 9 -8 6 -19 -3 -12 1 -22 9 -25 8 -3 13 -9 12 -13 -1 -4 4 -18 11 -31 7
-13 10 -29 8 -36 -5 -12 1 -28 37 -106 6 -14 14 -27 18 -30 4 -3 8 -21 9 -40
2 -19 5 -39 8 -45 3 -5 6 -21 8 -35 6 -56 10 -68 26 -84 11 -12 17 -34 17 -67
0 -28 7 -60 15 -73 9 -13 17 -46 19 -74 2 -28 7 -56 11 -63 9 -14 17 -60 18
-106 1 -18 4 -33 7 -33 4 0 7 -29 8 -65 1 -63 0 -67 -36 -103 -20 -21 -48 -52
-62 -70 -14 -18 -29 -32 -34 -32 -5 0 -26 -18 -47 -39 -39 -39 -74 -48 -74
-18 0 8 -3 18 -7 22 -3 3 -1 30 6 58 11 50 11 116 1 242 -3 33 -7 80 -9 105
-2 25 -6 52 -8 60 -3 8 -16 61 -29 118 -12 56 -26 102 -29 102 -7 0 -9 9 -11
65 0 19 -5 35 -9 35 -8 0 -20 26 -20 43 0 4 -11 28 -25 52 -14 25 -25 52 -25
61 0 8 -7 17 -15 20 -8 4 -13 10 -10 14 3 4 -2 11 -11 14 -8 3 -13 10 -9 15 3
6 -1 13 -9 18 -14 8 -16 12 -16 33 0 5 -11 15 -24 22 -14 7 -25 18 -26 23 -1
22 -12 45 -21 45 -6 0 -8 4 -4 9 3 5 -3 16 -13 23 -10 7 -25 24 -32 38 -15 28
-41 50 -52 44 -9 -6 -29 32 -21 40 3 3 1 6 -5 6 -6 0 -17 6 -24 13 -54 51
-112 96 -119 92 -4 -3 -14 4 -22 15 -17 24 -82 47 -74 26 3 -7 -1 -13 -9 -13
-9 0 -12 7 -9 17 6 19 -52 70 -79 70 -9 0 -16 5 -16 10 0 6 -9 10 -19 10 -11
0 -23 5 -26 10 -4 6 -16 8 -28 5 -15 -4 -18 -3 -9 3 11 8 11 10 -1 15 -7 3
-19 2 -25 -2z"/>
<path d="M623 2207 c-3 -4 -12 -7 -21 -6 -107 11 -141 -91 -98 -296 3 -11 5
-21 6 -22 2 -2 3 -7 4 -12 0 -5 4 -13 9 -17 4 -4 7 -14 7 -22 0 -19 50 -132
67 -153 7 -9 10 -19 6 -22 -3 -4 -1 -7 6 -7 7 0 9 -4 6 -10 -3 -5 -2 -10 3
-10 5 0 19 -20 32 -45 13 -25 27 -45 32 -45 4 0 8 -7 8 -15 0 -8 9 -20 20 -27
11 -7 20 -18 20 -25 0 -6 11 -20 23 -30 13 -10 26 -24 28 -30 8 -25 203 -213
215 -209 8 3 11 -1 7 -10 -3 -7 -1 -14 3 -14 5 0 27 -17 49 -36 22 -20 60 -50
85 -67 25 -17 48 -35 52 -41 5 -7 8 -7 8 -1 0 6 5 2 11 -7 5 -10 17 -18 24
-18 8 0 15 -4 15 -10 0 -5 6 -10 14 -10 7 0 25 -11 40 -25 14 -13 26 -21 26
-18 0 3 7 0 15 -7 8 -7 15 -9 15 -5 0 5 9 -2 20 -15 11 -13 20 -20 20 -16 0 4
12 -1 28 -12 41 -29 248 -132 272 -135 12 -2 25 -8 28 -13 4 -5 16 -11 27 -12
11 -2 22 -7 25 -10 3 -4 16 -8 30 -9 14 -2 39 -5 55 -7 99 -15 149 -19 325
-21 107 -2 200 0 205 3 6 4 31 5 58 4 26 -1 47 2 47 6 0 5 19 8 43 7 23 -1 47
0 52 4 6 3 21 6 35 8 31 3 86 11 120 18 80 16 243 56 253 62 10 6 26 10 65 15
6 1 12 5 12 10 0 5 5 6 10 3 6 -4 17 -1 25 5 8 7 15 9 15 5 0 -4 7 -2 15 5 8
6 19 9 25 5 5 -3 10 -3 10 2 0 4 19 14 42 21 23 7 57 19 75 27 18 8 34 13 36
13 1 -1 20 7 42 18 187 94 235 120 235 125 0 4 9 9 21 12 13 4 18 10 13 18 -4
8 -3 10 4 5 7 -4 23 4 37 18 14 14 25 22 25 18 1 -10 40 38 40 49 0 9 -90 53
-104 50 -4 -1 -28 10 -52 24 -24 14 -46 25 -49 25 -3 0 -19 7 -35 15 -16 8
-31 15 -32 14 -2 -1 -25 8 -53 21 -27 13 -50 21 -50 19 0 -2 -13 4 -30 13 -33
18 -122 58 -129 58 -2 0 -26 10 -53 22 -26 11 -57 23 -68 25 -11 2 -22 8 -23
13 -2 6 -8 8 -13 4 -5 -3 -9 0 -9 5 0 6 -5 11 -11 11 -5 0 -7 -6 -3 -12 4 -7
-1 -6 -12 4 -10 9 -50 29 -89 44 -38 16 -72 31 -75 34 -3 3 -14 6 -25 8 -11 2
-38 11 -60 22 -22 10 -74 31 -115 46 -41 16 -86 34 -99 41 -14 6 -28 10 -33 7
-4 -3 -8 0 -8 7 0 7 -3 9 -7 6 -3 -4 -11 -3 -17 1 -6 5 -33 17 -61 26 -27 10
-64 24 -82 32 -17 8 -38 14 -46 14 -9 0 -23 7 -31 16 -9 8 -16 13 -16 9 0 -3
-8 -1 -18 4 -11 6 -30 12 -43 15 -13 2 -62 19 -109 37 -47 18 -88 32 -92 31
-5 -1 -8 2 -8 7 0 6 -9 8 -19 6 -11 -2 -36 5 -57 15 -20 11 -40 17 -45 15 -4
-3 -9 0 -11 5 -2 6 -15 12 -29 14 -13 1 -29 5 -34 8 -6 3 -35 13 -65 22 -30
10 -62 20 -70 23 -18 7 -29 11 -55 16 -11 3 -38 12 -60 20 -22 8 -85 27 -140
42 -55 15 -107 29 -115 32 -8 3 -19 7 -25 8 -5 1 -13 3 -17 5 -5 1 -17 4 -28
5 -11 1 -21 3 -22 5 -3 2 -3 2 -97 25 -171 42 -464 74 -478 52z"/>
</g>
</svg>
